<!DOCTYPE svg PUBLIC "-//W3C//DTD SVG 20010904//EN" "http://www.w3.org/TR/2001/REC-SVG-20010904/DTD/svg10.dtd">
<svg version="1.0" xmlns="http://www.w3.org/2000/svg" width="1200px" height="251px" viewBox="0 0 12000 2510" preserveAspectRatio="xMidYMid meet">
<g id="layer101" fill="#ffffff" stroke="none">
 <path d="M3225 1969 c-89 -12 -218 -46 -270 -72 -146 -73 -240 -205 -258 -364 l-6 -53 229 0 c198 0 230 2 230 15 0 30 71 94 126 115 66 24 168 27 241 5 102 -30 144 -121 86 -185 -36 -40 -113 -65 -271 -91 -224 -37 -271 -49 -363 -96 -104 -53 -157 -106 -201 -199 -63 -135 -61 -289 7 -429 124 -258 508 -376 899 -275 226 58 384 236 386 433 l0 37 -214 0 -214 0 -6 -24 c-9 -36 -53 -84 -100 -109 -33 -18 -58 -22 -131 -22 -78 0 -96 3 -135 25 -75 42 -88 131 -27 188 34 32 95 50 282 83 194 34 255 50 342 89 339 154 318 658 -34 843 -151 79 -386 113 -598 86z"/>
 <path d="M7890 1969 c-304 -39 -505 -226 -596 -555 -25 -90 -31 -364 -10 -482 56 -322 257 -545 548 -608 96 -20 262 -20 363 1 366 75 582 409 561 865 -10 223 -67 395 -174 528 -119 149 -263 225 -475 252 -91 11 -124 11 -217 -1z m202 -179 c190 -28 327 -138 406 -327 72 -172 71 -462 -1 -642 -74 -183 -233 -310 -413 -331 -293 -32 -505 119 -586 419 -28 102 -30 342 -5 445 59 238 209 395 412 431 88 16 105 17 187 5z"/>
 <path d="M380 1140 l0 -812 428 5 c483 5 498 7 661 83 78 36 106 57 170 121 92 93 141 181 178 321 24 86 27 116 27 267 1 188 -17 285 -74 412 -92 203 -261 342 -475 389 -67 15 -145 18 -497 22 l-418 4 0 -812z m725 424 c156 -40 234 -146 256 -345 26 -227 -53 -416 -200 -482 -37 -17 -72 -22 -178 -25 l-133 -4 0 436 0 436 98 0 c56 0 123 -7 157 -16z"/>
 <path d="M2040 1140 l0 -810 235 0 235 0 -2 808 -3 807 -232 3 -233 2 0 -810z"/>
 <path d="M4650 1330 l0 -620 -215 0 -215 0 0 -190 0 -190 665 0 665 0 -2 188 -3 187 -212 3 -213 2 0 620 0 620 -235 0 -235 0 0 -620z"/>
 <path d="M5712 1143 l3 -808 435 0 c493 0 525 4 670 76 150 75 240 202 262 372 25 190 -25 350 -148 473 -35 35 -70 64 -78 64 -8 0 -17 4 -21 9 -3 5 60 141 140 303 80 161 145 299 145 306 0 10 -56 12 -261 10 l-261 -3 -119 -255 c-66 -140 -123 -261 -126 -267 -3 -9 -30 -13 -84 -13 l-79 0 -2 268 -3 267 -238 3 -237 2 2 -807z m727 -54 c65 -14 110 -44 139 -94 19 -34 22 -52 20 -111 -4 -92 -34 -140 -109 -178 -49 -24 -63 -26 -176 -26 l-123 0 0 203 c0 112 3 207 7 210 10 11 187 8 242 -4z"/>
 <path d="M9012 1143 l3 -808 97 -3 96 -3 148 213 c252 362 368 529 440 633 39 55 121 173 183 263 62 89 117 162 122 162 5 0 9 -266 9 -635 l0 -636 98 3 97 3 0 805 0 805 -100 2 -100 2 -64 -92 c-97 -140 -638 -916 -738 -1057 l-88 -125 -5 635 -5 635 -98 3 -97 3 2 -808z"/>
 <path d="M10630 1140 l0 -810 500 0 500 0 0 85 0 85 -400 0 -400 0 0 270 0 270 380 0 381 0 -3 83 -3 82 -377 3 -378 2 0 280 0 280 400 0 400 0 0 90 0 90 -500 0 -500 0 0 -810z"/>
 </g>

</svg>
